<svg xmlns="http://www.w3.org/2000/svg" viewBox="0 0 64 64" fill="none">
<path d="M29 22c-8 0-15 7-15 15 0 6 5 11 11 11 4 0 7-2 9-5" fill="#EAF2FF" stroke="#16345B" stroke-width="2.6" stroke-linecap="round" stroke-linejoin="round" />
<path d="M29 22c-8 0-15 7-15 15 0 6 5 11 11 11 4 0 7-2 9-5" fill="none" stroke="#16345B" stroke-width="2.6" stroke-linecap="round" stroke-linejoin="round" />
<path d="M35 20c9 0 15 7 15 15 0 7-5 13-12 13-4 0-7-2-9-5" fill="#EAF2FF" stroke="#16345B" stroke-width="2.6" stroke-linecap="round" stroke-linejoin="round" />
<path d="M35 20c9 0 15 7 15 15 0 7-5 13-12 13-4 0-7-2-9-5" fill="none" stroke="#16345B" stroke-width="2.6" stroke-linecap="round" stroke-linejoin="round" />
<path d="M32 16c2-5 6-8 10-8" fill="none" stroke="#7FA9E6" stroke-width="2.2" stroke-linecap="round" stroke-linejoin="round" />
<line x1="32" y1="22" x2="28" y2="34" stroke="#7FA9E6" stroke-width="2.0" stroke-linecap="round" stroke-linejoin="round" />
<line x1="32" y1="22" x2="36" y2="34" stroke="#7FA9E6" stroke-width="2.0" stroke-linecap="round" stroke-linejoin="round" />
<line x1="32" y1="22" x2="32" y2="38" stroke="#7FA9E6" stroke-width="2.0" stroke-linecap="round" stroke-linejoin="round" />
</svg>
