<svg xmlns="http://www.w3.org/2000/svg" viewBox="0 0 64 64" fill="none">
<path d="M32 50S14 40 14 26c0-6 4-10 10-10 4 0 6 2 8 5 2-3 4-5 8-5 6 0 10 4 10 10 0 14-18 24-18 24z" fill="#EAF2FF" stroke="#16345B" stroke-width="2.6" stroke-linecap="round" stroke-linejoin="round" />
<path d="M32 50S14 40 14 26c0-6 4-10 10-10 4 0 6 2 8 5 2-3 4-5 8-5 6 0 10 4 10 10 0 14-18 24-18 24z" fill="none" stroke="#16345B" stroke-width="2.6" stroke-linecap="round" stroke-linejoin="round" />
<path d="M27 24c1.5-1.2 3.2-1.8 5-1.8" fill="none" stroke="#7FA9E6" stroke-width="2.0" stroke-linecap="round" stroke-linejoin="round" />
</svg>
