<svg xmlns="http://www.w3.org/2000/svg" xmlns:xlink="http://www.w3.org/1999/xlink" viewBox="0 0 24 24">
  <g fill="none"><path d="M12 2a.75.75 0 0 1 .75.75v1.5a.75.75 0 0 1-1.5 0v-1.5A.75.75 0 0 1 12 2zm0 15a5 5 0 1 0 0-10a5 5 0 0 0 0 10zm0-1.5a3.5 3.5 0 1 1 0-7a3.5 3.5 0 0 1 0 7zm9.25-2.75a.75.75 0 0 0 0-1.5h-1.5a.75.75 0 0 0 0 1.5h1.5zM12 19a.75.75 0 0 1 .75.75v1.5a.75.75 0 0 1-1.5 0v-1.5A.75.75 0 0 1 12 19zm-7.75-6.25a.75.75 0 0 0 0-1.5h-1.5a.75.75 0 0 0 0 1.5h1.5zm-.03-8.53a.75.75 0 0 1 1.06 0l1.5 1.5a.75.75 0 0 1-1.06 1.06l-1.5-1.5a.75.75 0 0 1 0-1.06zm1.06 15.56a.75.75 0 1 1-1.06-1.06l1.5-1.5a.75.75 0 1 1 1.06 1.06l-1.5 1.5zm14.5-15.56a.75.75 0 0 0-1.06 0l-1.5 1.5a.75.75 0 0 0 1.06 1.06l1.5-1.5a.75.75 0 0 0 0-1.06zm-1.06 15.56a.75.75 0 1 0 1.06-1.06l-1.5-1.5a.75.75 0 1 0-1.06 1.06l1.5 1.5z" fill="#16345B" /></g>
</svg>
