<svg xmlns="http://www.w3.org/2000/svg" viewBox="0 0 64 64" fill="none">
<path d="M16 20h14l4 4h14v20a4 4 0 0 1-4 4H16a4 4 0 0 1-4-4V24a4 4 0 0 1 4-4z" fill="#EAF2FF" stroke="#16345B" stroke-width="2.6" stroke-linecap="round" stroke-linejoin="round" />
<path d="M16 20h14l4 4h14v20a4 4 0 0 1-4 4H16a4 4 0 0 1-4-4V24a4 4 0 0 1 4-4z" fill="none" stroke="#16345B" stroke-width="2.6" stroke-linecap="round" stroke-linejoin="round" />
<path d="M18 24h16l3 3h9" fill="none" stroke="#7FA9E6" stroke-width="2.1" stroke-linecap="round" stroke-linejoin="round" />
</svg>
