<svg xmlns="http://www.w3.org/2000/svg" viewBox="0 0 64 64" fill="none">
<path d="M32 50c-9-5-14-12-14-20 0-8 5-13 12-13 4 0 7 2 9 5 2-3 5-5 9-5 2 0 4 .5 5.5 1.5" fill="#EAF2FF" stroke="none" stroke-width="2.6" stroke-linecap="round" stroke-linejoin="round" />
<path d="M32 50c-9-5-14-12-14-20 0-8 5-13 12-13 4 0 7 2 9 5 2-3 5-5 9-5 2 0 4 .5 5.5 1.5" fill="none" stroke="#16345B" stroke-width="2.6" stroke-linecap="round" stroke-linejoin="round" />
<path d="M34 16c0-4 2-7 6-8" fill="none" stroke="#7FA9E6" stroke-width="2.2" stroke-linecap="round" stroke-linejoin="round" />
<path d="M33 18c-1-3-3.5-6-7-7" fill="none" stroke="#7FA9E6" stroke-width="2.2" stroke-linecap="round" stroke-linejoin="round" />
</svg>
