<svg xmlns="http://www.w3.org/2000/svg" viewBox="0 0 64 64" fill="none">
<rect x="14" y="25" width="36" height="23" rx="4" fill="#EAF2FF" stroke="#16345B" stroke-width="2.6" stroke-linecap="round" stroke-linejoin="round" />
<rect x="12" y="21" width="40" height="8" rx="3" fill="white" stroke="#16345B" stroke-width="2.6" stroke-linecap="round" stroke-linejoin="round" />
<path d="M28 21c-4 0-7-2.8-7-6 0-2 1.5-3.5 3.5-3.5 3.5 0 5 4.5 7.5 9.5" fill="none" stroke="#7FA9E6" stroke-width="2.0" stroke-linecap="round" stroke-linejoin="round" />
<path d="M36 21c4 0 7-2.8 7-6 0-2-1.5-3.5-3.5-3.5-3.5 0-5 4.5-7.5 9.5" fill="none" stroke="#7FA9E6" stroke-width="2.0" stroke-linecap="round" stroke-linejoin="round" />
<line x1="32" y1="21" x2="32" y2="48" stroke="#7FA9E6" stroke-width="2.2" stroke-linecap="round" stroke-linejoin="round" />
<line x1="12" y1="29" x2="52" y2="29" stroke="#7FA9E6" stroke-width="2.2" stroke-linecap="round" stroke-linejoin="round" />
<rect x="12" y="21" width="40" height="8" rx="3" fill="none" stroke="#16345B" stroke-width="2.6" stroke-linecap="round" stroke-linejoin="round" />
<rect x="14" y="25" width="36" height="23" rx="4" fill="none" stroke="#16345B" stroke-width="2.6" stroke-linecap="round" stroke-linejoin="round" />
</svg>
