<svg xmlns="http://www.w3.org/2000/svg" viewBox="0 0 64 64" fill="none">
<path d="M32 14c-8 0-14 6-14 14 0 5 2.5 8.8 6 11.2 1.5 1 2 2.2 2.2 3.8h11.6c.2-1.6.7-2.8 2.2-3.8 3.5-2.4 6-6.2 6-11.2 0-8-6-14-14-14z" fill="white" stroke="#16345B" stroke-width="2.6" stroke-linecap="round" stroke-linejoin="round" />
<path d="M32 14c-8 0-14 6-14 14 0 5 2.5 8.8 6 11.2 1.5 1 2 2.2 2.2 3.8h11.6c.2-1.6.7-2.8 2.2-3.8 3.5-2.4 6-6.2 6-11.2 0-8-6-14-14-14z" fill="none" stroke="#16345B" stroke-width="2.6" stroke-linecap="round" stroke-linejoin="round" />
<line x1="26" y1="46" x2="38" y2="46" stroke="#16345B" stroke-width="2.6" stroke-linecap="round" stroke-linejoin="round" />
<line x1="27" y1="50" x2="37" y2="50" stroke="#16345B" stroke-width="2.6" stroke-linecap="round" stroke-linejoin="round" />
<line x1="28" y1="24" x2="32" y2="31" stroke="#7FA9E6" stroke-width="2.0" stroke-linecap="round" stroke-linejoin="round" />
<line x1="36" y1="24" x2="32" y2="31" stroke="#7FA9E6" stroke-width="2.0" stroke-linecap="round" stroke-linejoin="round" />
<line x1="32" y1="31" x2="32" y2="38" stroke="#7FA9E6" stroke-width="2.0" stroke-linecap="round" stroke-linejoin="round" />
</svg>
