<svg xmlns="http://www.w3.org/2000/svg" viewBox="0 0 64 64" fill="none">
<path d="M24 22a8 8 0 0 1 11 0l11 11a8 8 0 1 1-11 11L24 33a8 8 0 0 1 0-11z" fill="#EAF2FF" stroke="#16345B" stroke-width="2.6" stroke-linecap="round" stroke-linejoin="round" />
<path d="M24 22a8 8 0 0 1 11 0l11 11a8 8 0 1 1-11 11L24 33a8 8 0 0 1 0-11z" fill="none" stroke="#16345B" stroke-width="2.6" stroke-linecap="round" stroke-linejoin="round" />
<line x1="21" y1="30" x2="25" y2="34" stroke="#7FA9E6" stroke-width="2.2" stroke-linecap="round" stroke-linejoin="round" />
<line x1="29" y1="22" x2="46" y2="39" stroke="#7FA9E6" stroke-width="2.2" stroke-linecap="round" stroke-linejoin="round" />
</svg>
