<svg xmlns="http://www.w3.org/2000/svg" viewBox="0 0 64 64" fill="none">
<circle cx="24" cy="24" r="7" fill="#EAF2FF" stroke="#7FA9E6" stroke-width="2.2" stroke-linecap="round" stroke-linejoin="round" />
<line x1="24" y1="12" x2="24" y2="16" stroke="#7FA9E6" stroke-width="2.0" stroke-linecap="round" stroke-linejoin="round" />
<line x1="24" y1="32" x2="24" y2="36" stroke="#7FA9E6" stroke-width="2.0" stroke-linecap="round" stroke-linejoin="round" />
<line x1="12" y1="24" x2="16" y2="24" stroke="#7FA9E6" stroke-width="2.0" stroke-linecap="round" stroke-linejoin="round" />
<line x1="32" y1="24" x2="36" y2="24" stroke="#7FA9E6" stroke-width="2.0" stroke-linecap="round" stroke-linejoin="round" />
<line x1="16" y1="16" x2="19" y2="19" stroke="#7FA9E6" stroke-width="2.0" stroke-linecap="round" stroke-linejoin="round" />
<line x1="29" y1="29" x2="32" y2="32" stroke="#7FA9E6" stroke-width="2.0" stroke-linecap="round" stroke-linejoin="round" />
<path d="M25 45h18a8 8 0 0 0 0-16 11 11 0 0 0-21-2 7 7 0 1 0 3 18z" fill="white" stroke="#16345B" stroke-width="2.6" stroke-linecap="round" stroke-linejoin="round" />
<path d="M25 45h18a8 8 0 0 0 0-16 11 11 0 0 0-21-2 7 7 0 1 0 3 18z" fill="none" stroke="#16345B" stroke-width="2.6" stroke-linecap="round" stroke-linejoin="round" />
</svg>
